# AST/ASF file generated using VICON BodyLanguage
# -----------------------------------------------
:version 1.10
:name VICON
:units
  mass 1.0
  length 0.45
  angle deg
:documentation
   .ast/.asf automatically generated from VICON data using
   VICON BodyBuilder and BodyLanguage model FoxedUp or BRILLIANT.MOD
:root
   order TX TY TZ RX RY RZ
   axis XYZ
   position 0 0 0  
   orientation 0 0 0 
:bonedata
  begin
     id 1 
     name lhipjoint
     direction 0.643824 -0.71708 0.266994 
     length 2.52133 
     axis 0 0 0  XYZ
  end
  begin
     id 2 
     name lfemur
     direction 0.34202 -0.939693 0  
     length 7.51824  
     axis 0 0 20  XYZ
    dof rx ry rz
    limits (-160.0 20.0)
           (-70.0 70.0)
           (-60.0 70.0)
  end
  begin
     id 3 
     name ltibia
     direction 0.34202 -0.939693 0   
     length 7.3685   
     axis 0 0 20   XYZ
    dof rx
    limits (-10.0 170.0)
  end
  begin
     id 4 
     name lfoot
     direction 0.105419 -0.289636 0.951314   
     length 2.20972   
     axis -90 7.62852e-016 20   XYZ
    dof rx rz
    limits (-45.0 90.0)
           (-70.0 20.0)
  end
  begin
     id 5 
     name ltoes
     direction 1.53549e-011 -4.21833e-011 1   
     length 1.10139   
     axis -90 7.62852e-016 20   XYZ
    dof rx
    limits (-90.0 20.0)
  end
  begin
     id 6 
     name rhipjoint
     direction -0.608823 -0.743445 0.276811   
     length 2.43192  
     axis 0 0 0  XYZ 
  end
  begin
     id 7 
     name rfemur
     direction -0.34202 -0.939693 0   
     length 7.69715   
     axis 0 0 -20   XYZ
    dof rx ry rz
    limits (-160.0 20.0)
           (-70.0 70.0)
           (-70.0 60.0)
  end
  begin
     id 8 
     name rtibia
     direction -0.34202 -0.939693 0   
     length 7.44924   
     axis 0 0 -20   XYZ
    dof rx
    limits (-10.0 170.0)
 end
 begin
     id 9 
     name rfoot
     direction -0.103614 -0.284677 0.953007   
     length 2.22623  
     axis -90 -7.62852e-016 -20   XYZ
    dof rx rz
    limits (-45.0 90.0)
           (-20.0 70.0)
  end
  begin
     id 10 
     name rtoes
     direction -1.53537e-011 -4.22026e-011 1   
     length 1.11   
     axis -90 -7.62852e-016 -20   XYZ
    dof rx
    limits (-90.0 20.0)
  end
  begin
     id 11 
     name lowerback
     direction -0.0101212 0.99662 -0.0815298   
     length 2.08277   
     axis 0 0 0   XYZ
    dof rx ry rz
    limits (-20.0 45.0)
           (-30.0 30.0)
           (-30.0 30.0)
  end
  begin
     id 12 
     name upperback
     direction 0.024314 0.999591 -0.0150645   
     length 2.08524   
     axis 0 0 0   XYZ
    dof rx ry rz
    limits (-20.0 45.0)
           (-30.0 30.0)
           (-30.0 30.0)
  end
  begin
     id 13 
     name thorax
     direction 0.0285959 0.999323 0.0231357   
     length 2.09645   
     axis 0 0 0   XYZ
    dof rx ry rz
    limits (-20.0 45.0)
           (-30.0 30.0)
           (-30.0 30.0)
  end
  begin
     id 14 
     name lowerneck
     direction -0.065512 0.979301 0.191515   
     length 1.63798   
     axis 0 0 0   XYZ
    dof rx ry rz
    limits (-20.0 45.0)
           (-30.0 30.0)
           (-30.0 30.0)
  end
  begin
     id 15 
     name upperneck
     direction 0.0498479 0.98191 -0.182667   
     length 1.68731   
     axis 0 0 0   XYZ
    dof rx ry rz
    limits (-20.0 45.0)
           (-30.0 30.0)
           (-30.0 30.0)
  end
  begin
     id 16
     name head
     direction 0.0230358 0.996257 -0.0833175  
     length 1.69785  
     axis 0 0 0   XYZ
    dof rx ry rz
    limits (-20.0 45.0)
           (-30.0 30.0)
           (-30.0 30.0)
  end
  begin
     id 17 
     name lclavicle
     direction 0.967963 0.201165 -0.150269  
     length 3.63976  
     axis 0 0 0   XYZ
    dof ry rz
    limits (-20.0 10.0)
           (0.0 20.0)
  end
  begin
     id 18 
     name lhumerus
     direction 1 -4.48954e-011 -2.92837e-028   
     length 5.32462   
     axis 180 -30 -90   XYZ
    dof rx ry rz
    limits (-60.0 90.0)
           (-90.0 90.0)
           (-90.0 90.0)
  end
  begin
     id 19
     name lradius
     direction 1 -4.48958e-011 -6.39511e-027   
     length 3.48402   
     axis 180 -30 -90   XYZ
    dof rx
    limits (-10.0 170.0)
  end
  begin
     id 20
     name lwrist
     direction 1 -4.48975e-011 -1.1413e-026   
     length 1.74201   
     axis 6.88575e-015 90 90   XYZ
    dof ry
    limits (-180.0 0.0)
 end
  begin
     id 21 
     name lhand
     direction 1 -4.48899e-011 -2.28192e-026   
     length 0.572476   
     axis 1.45643e-014 90 90   XYZ
    dof rx rz
    limits (-90.0 90.0)
           (-45.0 45.0)
  end
  begin
     id 22 
     name lfingers
     direction 1 -4.49155e-011 -4.5684e-026   
     length 0.461545   
     axis 2.91283e-014 90 90   XYZ
    dof rx
    limits (0.0 90.0)
  end
  begin
     id 23
     name lthumb
     direction 0.707107 -6.34943e-011 0.707107   
     length 0.662688   
     axis -90 45 -2.25915e-014   XYZ
    dof rx rz
    limits (-45.0 45.0)
           (-45.0 45.0)
  end
  begin
     id 24 
     name rclavicle
     direction -0.964103 0.264019 -0.0282629   
     length 3.54491  
     axis 0 0 0   XYZ 
    dof ry rz
    limits (-10.0 20.0)
           (-20.0 0.0)
  end
  begin
     id 25 
     name rhumerus
     direction -1 -4.48964e-011 -2.45032e-027  
     length 5.33589   
     axis 180 30 90   XYZ
    dof rx ry rz
    limits (-90.0 60.0)
           (-90.0 90.0)
           (-90.0 90.0)
  end
  begin
     id 26 
     name rradius
     direction -1 -4.48987e-011 -1.55093e-027   
     length 3.64134   
     axis 180 30 90   XYZ
    dof rx
    limits (-10.0 170.0)
  end
  begin
     id 27 
     name rwrist
     direction -1 -4.4897e-011 -1.14128e-026   
     length 1.82067   
     axis 6.88575e-015 -90 -90   XYZ
    dof ry
    limits (-180.0 0.0)
  end
  begin
     id 28
     name rhand
     direction -1 -4.49021e-011 -2.28301e-026   
     length 0.734811   
     axis 1.45643e-014 -90 -90   XYZ
    dof rx rz
    limits (-90.0 90.0)
           (-45.0 45.0)
  end
  begin
     id 29
     name rfingers
     direction -1 -4.48862e-011 -4.56319e-026   
     length 0.592424   
     axis 2.91283e-014 -90 -90   XYZ
    dof rx
    limits (0.0 90.0)
  end
  begin
     id 30
     name rthumb
     direction -0.707107 -6.34978e-011 0.707107   
     length 0.850605   
     axis -90 -45 2.25915e-014   XYZ
    dof rx rz
    limits (-45.0 45.0)
           (-45.0 45.0)
  end
:hierarchy
  begin
    root lhipjoint rhipjoint lowerback
    lhipjoint lfemur
    lfemur ltibia
    ltibia lfoot
    lfoot ltoes
    rhipjoint rfemur
    rfemur rtibia
    rtibia rfoot
    rfoot rtoes
    lowerback upperback
    upperback thorax
    thorax lowerneck lclavicle rclavicle
    lowerneck upperneck
    upperneck head
    lclavicle lhumerus
    lhumerus lradius
    lradius lwrist
    lwrist lhand lthumb
    lhand lfingers
    rclavicle rhumerus
    rhumerus rradius
    rradius rwrist
    rwrist rhand rthumb
    rhand rfingers
  end

#!OML:ASF F:\VICON\USERDATA\INSTALL\rory3\rory3.ASF
:FULLY-SPECIFIED
:DEGREES
1
root 9.94802 17.8302 0.305169 -7.42043 -85.0678 14.4748
lowerback 1.90232 -0.410732 0.778047
upperback 0.155443 -0.535323 2.86721
thorax -0.886821 -0.279364 2.51918
lowerneck -22.3463 4.43159 -6.83482
upperneck 23.8126 7.88914 2.32578
head 11.0323 3.18619 3.18699
rclavicle 2.18663e-015 -7.15625e-015
rhumerus -42.1844 -14.8804 -69.4571
rradius 30.7947
rwrist 17.2417
rhand -20.5727 2.44528
rfingers 7.12502
rthumb 5.78687 -27.4557
lclavicle 2.18663e-015 -7.15625e-015
lhumerus -26.7468 -4.92013 92.7103
lradius 28.1998
lwrist -9.23968
lhand -11.3484 22.9952
lfingers 7.12502
lthumb 14.6849 52.4551
rfemur -15.5679 4.85693 21.8383
rtibia 30.9647
rfoot -20.1065 -3.75128
rtoes 8.19797
lfemur -15.3467 0.465834 -16.5155
ltibia 25.4617
lfoot -9.73993 19.5722
ltoes -15.1879
2
root 9.94485 17.8294 0.302599 -7.38091 -85.1642 14.5544
lowerback 1.86109 -0.329098 1.03899
upperback 0.0918486 -0.420689 2.83893
thorax -0.935304 -0.222908 2.34037
lowerneck -22.5137 4.28696 -6.71954
upperneck 24.3074 7.75613 2.01136
head 11.2811 3.06465 3.06037
rclavicle 5.1684e-015 -3.4191e-014
rhumerus -42.2698 -14.8166 -69.5187
rradius 30.7627
rwrist 17.2008
rhand -20.1556 2.85839
rfingers 7.12502
rthumb 6.18958 -27.0312
lclavicle 5.1684e-015 -3.4191e-014
lhumerus -26.9407 -5.06974 92.8679
lradius 28.0535
lwrist -9.31131
lhand -12.1869 23.8391
lfingers 7.12502
lthumb 13.8769 53.3561
rfemur -15.7337 4.75674 21.8479
rtibia 30.9907
rfoot -19.9968 -3.62738
rtoes 7.88466
lfemur -15.4763 0.501594 -16.5106
ltibia 25.5032
lfoot -9.6391 19.686
ltoes -15.5506
3
root 9.93816 17.8289 0.290622 -7.44062 -85.1601 14.5543
lowerback 1.91446 -0.285528 1.11257
upperback 0.10974 -0.36051 2.84516
thorax -0.94928 -0.193381 2.30415
lowerneck -22.5892 4.2515 -6.44107
upperneck 24.7716 7.72597 1.64345
head 11.5063 2.99942 2.89685
rclavicle 6.16232e-015 -2.78299e-014
rhumerus -42.3262 -14.8109 -69.5759
rradius 30.801
rwrist 17.3413
rhand -19.8518 2.98087
rfingers 7.12502
rthumb 6.48285 -26.8999
lclavicle 6.16232e-015 -2.78299e-014
lhumerus -27.0408 -4.76803 92.9064
lradius 27.7291
lwrist -9.7724
lhand -12.516 23.7773
lfingers 7.12502
lthumb 13.5598 53.3157
rfemur -15.666 4.79461 21.9102
rtibia 31.0544
rfoot -20.0939 -3.6664
rtoes 8.5027
lfemur -15.3625 0.457078 -16.4532
ltibia 25.4691
lfoot -9.70597 19.653
ltoes -15.2074
4
root 9.93409 17.8312 0.279818 -8.24118 -85.0763 15.2435
lowerback 2.04229 -0.28382 1.14948
upperback 0.143879 -0.354964 2.83569
thorax -0.986401 -0.190895 2.27428
lowerneck -22.6188 4.10939 -6.65844
upperneck 25.1113 7.58951 1.71846
head 11.6369 2.90811 2.95112
rclavicle -9.54166e-015 -9.54166e-015
rhumerus -42.2634 -14.5553 -69.7711
rradius 30.7883
rwrist 17.4179
rhand -19.7702 2.88386
rfingers 7.12502
rthumb 6.56166 -26.9945
lclavicle -9.54166e-015 -9.54166e-015
lhumerus -27.1518 -4.57432 93.0821
lradius 27.4863
lwrist -9.92463
lhand -12.8573 24.1851
lfingers 7.12502
lthumb 13.2307 53.7452
rfemur -15.5231 4.64348 21.9104
rtibia 31.0638
rfoot -20.1531 -3.66003
rtoes 9.44519
lfemur -15.2506 0.411291 -16.4796
ltibia 25.5107
lfoot -9.72174 19.5316
ltoes -15.3277
5
root 9.93415 17.831 0.273102 -9.7302 -85.0127 16.6964
lowerback 2.14203 -0.264951 1.1901
upperback 0.141696 -0.325672 2.7986
thorax -1.0459 -0.176211 2.21314
lowerneck -22.5794 3.87478 -7.12931
upperneck 25.4173 7.33968 2.01843
head 11.7264 2.77481 3.10824
rclavicle 7.7526e-015 0
rhumerus -42.1778 -14.1324 -70.0463
rradius 30.7549
rwrist 17.3975
rhand -19.5099 2.96555
rfingers 7.12502
rthumb 6.81297 -26.9048
lclavicle 7.7526e-015 0
lhumerus -27.3276 -4.77402 93.3454
lradius 27.3895
lwrist -9.6528
lhand -14.5998 25.8493
lfingers 7.12502
lthumb 11.5507 55.5111
rfemur -15.4662 4.52738 21.8047
rtibia 31.0411
rfoot -20.117 -3.66495
rtoes 8.99747
lfemur -15.2457 0.426468 -16.6024
ltibia 25.561
lfoot -9.54222 19.4866
ltoes -16.0553
6
root 9.93204 17.8289 0.26478 -10.1671 -85.0549 17.1298
lowerback 2.18066 -0.223792 1.32401
upperback 0.119613 -0.265848 2.76131
thorax -1.09274 -0.14686 2.09808
lowerneck -22.4543 3.74675 -7.33343
upperneck 25.7788 7.16536 2.21179
head 11.834 2.68349 3.19449
rclavicle -1.39149e-015 -7.95139e-015
rhumerus -42.1287 -13.752 -70.3645
rradius 30.748
rwrist 17.4108
rhand -19.1896 3.09078
rfingers 7.12502
rthumb 7.12214 -26.7694
lclavicle -1.39149e-015 -7.95139e-015
lhumerus -27.476 -4.70149 93.4068
lradius 27.1843
lwrist -9.91694
lhand -12.3403 24.4817
lfingers 7.12502
lthumb 13.7291 54.0088
rfemur -15.4336 4.73234 21.789
rtibia 31.0058
rfoot -20.1484 -3.82161
rtoes 7.78126
lfemur -15.2725 0.519371 -16.5899
ltibia 25.6196
lfoot -9.52436 19.4268
ltoes -15.8141
